<svg xmlns="http://www.w3.org/2000/svg" viewBox="0 0 1920 1080" width="1920" height="1080">
<title>Flattening strategies</title>
<defs><marker id="a" viewBox="0 0 10 10" refX="9" refY="5" markerWidth="7" markerHeight="7" orient="auto-start-reverse"><path d="M0,0 L10,5 L0,10 z" fill="#57606a"/></marker><marker id="g" viewBox="0 0 10 10" refX="9" refY="5" markerWidth="7" markerHeight="7" orient="auto-start-reverse"><path d="M0,0 L10,5 L0,10 z" fill="#2f8f57"/></marker><marker id="r" viewBox="0 0 10 10" refX="9" refY="5" markerWidth="7" markerHeight="7" orient="auto-start-reverse"><path d="M0,0 L10,5 L0,10 z" fill="#c24141"/></marker><marker id="o" viewBox="0 0 10 10" refX="9" refY="5" markerWidth="7" markerHeight="7" orient="auto-start-reverse"><path d="M0,0 L10,5 L0,10 z" fill="#e0a534"/></marker></defs>
<rect width="1920" height="1080" fill="#ffffff"/>
<g font-family="Segoe UI, Helvetica, Arial, sans-serif">
<text x="1720" y="55" text-anchor="middle" font-size="24" fill="#57606a">subscribed / peak / delivered</text>
<rect x="40" y="80" width="1840" height="215" rx="18" fill="#ffffff" stroke="#8c959f" stroke-width="2"/>
<text x="70" y="175" text-anchor="start" font-size="34" font-weight="700" font-family="Consolas, monospace" fill="#24292f">switchMap</text>
<text x="70" y="225" text-anchor="start" font-size="26" fill="#57606a">cancels pending</text>
<line x1="460" y1="255" x2="1500" y2="255" stroke="#8c959f" stroke-width="3"/>
<line x1="480" y1="245" x2="480" y2="265" stroke="#24292f" stroke-width="4"/>
<line x1="545" y1="245" x2="545" y2="265" stroke="#24292f" stroke-width="4"/>
<line x1="610" y1="245" x2="610" y2="265" stroke="#24292f" stroke-width="4"/>
<line x1="675" y1="245" x2="675" y2="265" stroke="#24292f" stroke-width="4"/>
<line x1="480" y1="140" x2="545" y2="140" stroke="#c24141" stroke-width="12"/>
<line x1="545" y1="166" x2="610" y2="166" stroke="#c24141" stroke-width="12"/>
<line x1="610" y1="192" x2="675" y2="192" stroke="#c24141" stroke-width="12"/>
<line x1="675" y1="218" x2="925" y2="218" stroke="#2f8f57" stroke-width="12"/>
<rect x="1560" y="140" width="300" height="100" rx="50" fill="#ffffff" stroke="#8c959f" stroke-width="2"/>
<text x="1710" y="202" text-anchor="middle" font-size="32" font-weight="700" font-family="Consolas, monospace" fill="#24292f">4 / 1 / 1</text>
<rect x="40" y="325" width="1840" height="215" rx="18" fill="#f6f8fa" stroke="#8c959f" stroke-width="2"/>
<text x="70" y="420" text-anchor="start" font-size="34" font-weight="700" font-family="Consolas, monospace" fill="#24292f">mergeMap</text>
<text x="70" y="470" text-anchor="start" font-size="26" fill="#57606a">runs in parallel</text>
<line x1="460" y1="500" x2="1500" y2="500" stroke="#8c959f" stroke-width="3"/>
<line x1="480" y1="490" x2="480" y2="510" stroke="#24292f" stroke-width="4"/>
<line x1="545" y1="490" x2="545" y2="510" stroke="#24292f" stroke-width="4"/>
<line x1="610" y1="490" x2="610" y2="510" stroke="#24292f" stroke-width="4"/>
<line x1="675" y1="490" x2="675" y2="510" stroke="#24292f" stroke-width="4"/>
<line x1="480" y1="377" x2="730" y2="377" stroke="#2f8f57" stroke-width="12"/>
<line x1="545" y1="407" x2="795" y2="407" stroke="#2f8f57" stroke-width="12"/>
<line x1="610" y1="437" x2="860" y2="437" stroke="#2f8f57" stroke-width="12"/>
<line x1="675" y1="467" x2="925" y2="467" stroke="#2f8f57" stroke-width="12"/>
<rect x="1560" y="385" width="300" height="100" rx="50" fill="#ffffff" stroke="#8c959f" stroke-width="2"/>
<text x="1710" y="447" text-anchor="middle" font-size="32" font-weight="700" font-family="Consolas, monospace" fill="#24292f">4 / 4 / 4</text>
<rect x="40" y="570" width="1840" height="215" rx="18" fill="#ffffff" stroke="#8c959f" stroke-width="2"/>
<text x="70" y="665" text-anchor="start" font-size="34" font-weight="700" font-family="Consolas, monospace" fill="#24292f">concatMap</text>
<text x="70" y="715" text-anchor="start" font-size="26" fill="#57606a">queues in order</text>
<line x1="460" y1="745" x2="1500" y2="745" stroke="#8c959f" stroke-width="3"/>
<line x1="480" y1="735" x2="480" y2="755" stroke="#24292f" stroke-width="4"/>
<line x1="545" y1="735" x2="545" y2="755" stroke="#24292f" stroke-width="4"/>
<line x1="610" y1="735" x2="610" y2="755" stroke="#24292f" stroke-width="4"/>
<line x1="675" y1="735" x2="675" y2="755" stroke="#24292f" stroke-width="4"/>
<line x1="484" y1="622" x2="726" y2="622" stroke="#2f8f57" stroke-width="12"/>
<line x1="734" y1="652" x2="976" y2="652" stroke="#2f8f57" stroke-width="12"/>
<line x1="984" y1="682" x2="1226" y2="682" stroke="#2f8f57" stroke-width="12"/>
<line x1="1234" y1="712" x2="1476" y2="712" stroke="#2f8f57" stroke-width="12"/>
<rect x="1560" y="630" width="300" height="100" rx="50" fill="#ffffff" stroke="#8c959f" stroke-width="2"/>
<text x="1710" y="692" text-anchor="middle" font-size="32" font-weight="700" font-family="Consolas, monospace" fill="#24292f">4 / 1 / 4</text>
<rect x="40" y="815" width="1840" height="215" rx="18" fill="#f6f8fa" stroke="#8c959f" stroke-width="2"/>
<text x="70" y="910" text-anchor="start" font-size="34" font-weight="700" font-family="Consolas, monospace" fill="#24292f">exhaustMap</text>
<text x="70" y="960" text-anchor="start" font-size="26" fill="#57606a">ignores while busy</text>
<line x1="460" y1="990" x2="1500" y2="990" stroke="#8c959f" stroke-width="3"/>
<line x1="480" y1="980" x2="480" y2="1000" stroke="#24292f" stroke-width="4"/>
<line x1="545" y1="980" x2="545" y2="1000" stroke="#24292f" stroke-width="4"/>
<line x1="610" y1="980" x2="610" y2="1000" stroke="#24292f" stroke-width="4"/>
<line x1="675" y1="980" x2="675" y2="1000" stroke="#24292f" stroke-width="4"/>
<line x1="480" y1="915" x2="730" y2="915" stroke="#2f8f57" stroke-width="12"/>
<line x1="535" y1="855" x2="555" y2="875" stroke="#c24141" stroke-width="4"/>
<line x1="555" y1="855" x2="535" y2="875" stroke="#c24141" stroke-width="4"/>
<line x1="600" y1="855" x2="620" y2="875" stroke="#c24141" stroke-width="4"/>
<line x1="620" y1="855" x2="600" y2="875" stroke="#c24141" stroke-width="4"/>
<line x1="665" y1="855" x2="685" y2="875" stroke="#c24141" stroke-width="4"/>
<line x1="685" y1="855" x2="665" y2="875" stroke="#c24141" stroke-width="4"/>
<rect x="1560" y="875" width="300" height="100" rx="50" fill="#ffffff" stroke="#8c959f" stroke-width="2"/>
<text x="1710" y="937" text-anchor="middle" font-size="32" font-weight="700" font-family="Consolas, monospace" fill="#24292f">1 / 1 / 1</text>
<text x="990" y="1060" text-anchor="middle" font-size="26" fill="#57606a">four fast clicks; each request held 1500 ms</text>
</g>
</svg>
